<?xml version="1.0" encoding="UTF-8" standalone="no"?>
<!-- Created with Inkscape (http://www.inkscape.org/) -->

<svg
   xmlns:dc="http://purl.org/dc/elements/1.1/"
   xmlns:cc="http://creativecommons.org/ns#"
   xmlns:rdf="http://www.w3.org/1999/02/22-rdf-syntax-ns#"
   xmlns:svg="http://www.w3.org/2000/svg"
   xmlns="http://www.w3.org/2000/svg"
   xmlns:xlink="http://www.w3.org/1999/xlink"
   xmlns:sodipodi="http://sodipodi.sourceforge.net/DTD/sodipodi-0.dtd"
   xmlns:inkscape="http://www.inkscape.org/namespaces/inkscape"
   width="1280"
   height="680"
   viewBox="0 0 1280 680.00001"
   id="svg4258"
   version="1.1"
   inkscape:version="0.91 r13725"
   sodipodi:docname="tipitos2.svg">
  <defs
     id="defs4260" />
  <sodipodi:namedview
     id="base"
     pagecolor="#ffffff"
     bordercolor="#666666"
     borderopacity="1.0"
     inkscape:pageopacity="0.0"
     inkscape:pageshadow="2"
     inkscape:zoom="0.9078125"
     inkscape:cx="475.93719"
     inkscape:cy="837.66676"
     inkscape:document-units="px"
     inkscape:current-layer="layer3"
     showgrid="true"
     inkscape:snap-global="true"
     showguides="false"
     units="px"
     inkscape:snap-bbox="true"
     inkscape:window-width="1600"
     inkscape:window-height="852"
     inkscape:window-x="0"
     inkscape:window-y="0"
     inkscape:window-maximized="1"
     inkscape:bbox-nodes="true">
    <inkscape:grid
       type="xygrid"
       id="grid4806"
       spacingx="10"
       spacingy="10" />
  </sodipodi:namedview>
  <metadata
     id="metadata4263">
    <rdf:RDF>
      <cc:Work
         rdf:about="">
        <dc:format>image/svg+xml</dc:format>
        <dc:type
           rdf:resource="http://purl.org/dc/dcmitype/StillImage" />
        <dc:title />
      </cc:Work>
    </rdf:RDF>
  </metadata>
  <g
     inkscape:label="Capa 1"
     inkscape:groupmode="layer"
     id="layer1"
     style="display:none"
     transform="translate(0,-372.36216)">
    <image
       sodipodi:absref="/home/dafeba17/Documentos/diseños/6beab64d78101dd01822cc67e5479aca.jpg"
       xlink:href="/home/dafeba17/Documentos/diseños/6beab64d78101dd01822cc67e5479aca.jpg"
       width="169.2"
       height="171"
       preserveAspectRatio="none"
       style="image-rendering:optimizeQuality"
       id="image4822"
       x="186.38107"
       y="305.10663" />
  </g>
  <g
     inkscape:groupmode="layer"
     id="layer3"
     inkscape:label="Capa 2"
     transform="translate(0,-372.36216)">
    <path
       style="opacity:1;fill:#007400;fill-opacity:1;fill-rule:nonzero;stroke:none;stroke-width:5;stroke-linecap:round;stroke-linejoin:round;stroke-miterlimit:4;stroke-dasharray:none;stroke-dashoffset:0;stroke-opacity:0.54594595"
       d="m 226.50391,330.36719 c -3.2605,0.16053 -6.51322,1.73702 -6.53907,5.25976 0,4.63668 1.42272,9.73196 3.32227,16.75 l 23.33789,0 c 1.89955,-7.01804 3.32227,-12.11332 3.32227,-16.75 -0.0258,-3.52274 -3.27857,-5.09923 -6.53907,-5.25976 -2.70807,-0.10966 -5.5271,1.50623 -8.45117,1.48633 -2.9241,0.0199 -5.74503,-1.59599 -8.45312,-1.48633 z"
       id="rect4808"
       inkscape:connector-curvature="0"
       sodipodi:nodetypes="cccccccc" />
    <path
       style="opacity:1;fill:#007400;fill-opacity:1;fill-rule:nonzero;stroke:none;stroke-width:5;stroke-linecap:round;stroke-linejoin:round;stroke-miterlimit:4;stroke-dasharray:none;stroke-dashoffset:0;stroke-opacity:0.54594595"
       d="m 241.88895,321.80412 c -0.5092,4.11592 -2.9909,8.79587 -6.68033,8.79587 -3.68947,0 -6.31621,-4.65688 -6.68037,-8.79587 -0.50151,-5.70047 1.48636,-9.42734 6.68037,-9.42734 5.19401,0 7.33231,4.15735 6.68033,9.42734 z"
       id="path4810"
       inkscape:connector-curvature="0"
       sodipodi:nodetypes="ssszs" />
    <path
       sodipodi:nodetypes="cccccccc"
       inkscape:connector-curvature="0"
       id="path4858"
       d="m 276.35433,330.36719 c -3.2605,0.16053 -6.51322,1.73702 -6.53907,5.25976 0,4.63668 1.42272,9.73196 3.32227,16.75 l 23.33789,0 c 1.89955,-7.01804 3.32227,-12.11332 3.32227,-16.75 -0.0258,-3.52274 -3.27857,-5.09923 -6.53907,-5.25976 -2.70807,-0.10966 -5.5271,1.50623 -8.45117,1.48633 -2.9241,0.0199 -5.74503,-1.59599 -8.45312,-1.48633 z"
       style="opacity:1;fill:#000000;fill-opacity:1;fill-rule:nonzero;stroke:none;stroke-width:5;stroke-linecap:round;stroke-linejoin:round;stroke-miterlimit:4;stroke-dasharray:none;stroke-dashoffset:0;stroke-opacity:0.54594595" />
    <path
       sodipodi:nodetypes="ssszs"
       inkscape:connector-curvature="0"
       id="path4860"
       d="m 291.73937,321.80412 c -0.5092,4.11592 -2.9909,8.79587 -6.68033,8.79587 -3.68947,0 -6.31621,-4.65688 -6.68037,-8.79587 -0.50151,-5.70047 1.48636,-9.42734 6.68037,-9.42734 5.19401,0 7.33231,4.15735 6.68033,9.42734 z"
       style="opacity:1;fill:#000000;fill-opacity:1;fill-rule:nonzero;stroke:none;stroke-width:5;stroke-linecap:round;stroke-linejoin:round;stroke-miterlimit:4;stroke-dasharray:none;stroke-dashoffset:0;stroke-opacity:0.54594595" />
    <path
       style="opacity:1;fill:#000000;fill-opacity:1;fill-rule:nonzero;stroke:none;stroke-width:5;stroke-linecap:round;stroke-linejoin:round;stroke-miterlimit:4;stroke-dasharray:none;stroke-dashoffset:0;stroke-opacity:0.54594595"
       d="m 315.24197,312.3602 c -5.19394,0 -7.18109,3.72727 -6.67959,9.42774 0.36415,4.13899 2.99017,8.79687 6.67959,8.79687 3.68937,0 6.17235,-4.68095 6.68154,-8.79687 0.65197,-5.26999 -1.48761,-9.42774 -6.68154,-9.42774 z m -8.703,17.99219 c -3.26046,0.16053 -6.51312,1.73703 -6.53897,5.25977 0,4.63668 1.42269,9.73196 3.32221,16.75 l 23.33757,0 c 1.89952,-7.01804 3.32222,-12.11332 3.32222,-16.75 -0.0258,-3.52274 -3.27852,-5.09924 -6.53898,-5.25977 -2.70803,-0.10966 -5.52702,1.50623 -8.45105,1.48633 -2.92406,0.0199 -5.74495,-1.59599 -8.453,-1.48633 z"
       id="path4862"
       inkscape:connector-curvature="0" />
    <path
       inkscape:connector-curvature="0"
       id="path4867"
       d="m 365.23438,313.36212 c -4.8506,0 -6.7064,3.54074 -6.23805,8.95593 0.34008,3.93186 2.79251,8.35664 6.23805,8.35664 3.44549,0 5.76433,-4.4467 6.23987,-8.35664 0.60888,-5.00625 -1.38928,-8.95593 -6.23987,-8.95593 z m -8.12771,17.09178 c -3.04493,0.1525 -6.08258,1.6501 -6.10672,4.99655 0,4.40464 1.32865,9.24493 3.1026,15.91176 l 21.79489,0 c 1.77396,-6.66683 3.1026,-11.50712 3.1026,-15.91176 -0.0241,-3.34645 -3.06179,-4.84405 -6.10672,-4.99655 -2.52902,-0.10417 -5.16166,1.43085 -7.89241,1.41195 -2.73077,0.0189 -5.3652,-1.51612 -7.89424,-1.41195 z"
       style="opacity:1;fill:#000000;fill-opacity:1;fill-rule:nonzero;stroke:#ffffff;stroke-width:1;stroke-linecap:round;stroke-linejoin:round;stroke-miterlimit:4;stroke-dasharray:none;stroke-dashoffset:0;stroke-opacity:1" />
    <path
       style="opacity:1;fill:#000000;fill-opacity:1;fill-rule:nonzero;stroke:#ffffff;stroke-width:1;stroke-linecap:round;stroke-linejoin:round;stroke-miterlimit:4;stroke-dasharray:none;stroke-dashoffset:0;stroke-opacity:1"
       d="m 395.23438,313.36212 c -4.8506,0 -6.7064,3.54074 -6.23805,8.95593 0.34008,3.93186 2.79251,8.35664 6.23805,8.35664 3.44549,0 5.76433,-4.4467 6.23987,-8.35664 0.60888,-5.00625 -1.38928,-8.95593 -6.23987,-8.95593 z m -8.12771,17.09178 c -3.04493,0.1525 -6.08258,1.6501 -6.10672,4.99655 0,4.40464 1.32865,9.24493 3.1026,15.91176 l 21.79489,0 c 1.77396,-6.66683 3.1026,-11.50712 3.1026,-15.91176 -0.0241,-3.34645 -3.06179,-4.84405 -6.10672,-4.99655 -2.52902,-0.10417 -5.16166,1.43085 -7.89241,1.41195 -2.73077,0.0189 -5.3652,-1.51612 -7.89424,-1.41195 z"
       id="path4875"
       inkscape:connector-curvature="0" />
    <path
       inkscape:connector-curvature="0"
       id="path4877"
       d="m 425.23438,313.36212 c -4.8506,0 -6.7064,3.54074 -6.23805,8.95593 0.34008,3.93186 2.79251,8.35664 6.23805,8.35664 3.44549,0 5.76433,-4.4467 6.23987,-8.35664 0.60888,-5.00625 -1.38928,-8.95593 -6.23987,-8.95593 z m -8.12771,17.09178 c -3.04493,0.1525 -6.08258,1.6501 -6.10672,4.99655 0,4.40464 1.32865,9.24493 3.1026,15.91176 l 21.79489,0 c 1.77396,-6.66683 3.1026,-11.50712 3.1026,-15.91176 -0.0241,-3.34645 -3.06179,-4.84405 -6.10672,-4.99655 -2.52902,-0.10417 -5.16166,1.43085 -7.89241,1.41195 -2.73077,0.0189 -5.3652,-1.51612 -7.89424,-1.41195 z"
       style="opacity:1;fill:#cccccc;fill-opacity:1;fill-rule:nonzero;stroke:none;stroke-width:1;stroke-linecap:round;stroke-linejoin:round;stroke-miterlimit:4;stroke-dasharray:none;stroke-dashoffset:0;stroke-opacity:1" />
    <path
       style="opacity:1;fill:#cccccc;fill-opacity:1;fill-rule:nonzero;stroke:none;stroke-width:1;stroke-linecap:round;stroke-linejoin:round;stroke-miterlimit:4;stroke-dasharray:none;stroke-dashoffset:0;stroke-opacity:1"
       d="m 455.23438,313.36212 c -4.8506,0 -6.7064,3.54074 -6.23805,8.95593 0.34008,3.93186 2.79251,8.35664 6.23805,8.35664 3.44549,0 5.76433,-4.4467 6.23987,-8.35664 0.60888,-5.00625 -1.38928,-8.95593 -6.23987,-8.95593 z m -8.12771,17.09178 c -3.04493,0.1525 -6.08258,1.6501 -6.10672,4.99655 0,4.40464 1.32865,9.24493 3.1026,15.91176 l 21.79489,0 c 1.77396,-6.66683 3.1026,-11.50712 3.1026,-15.91176 -0.0241,-3.34645 -3.06179,-4.84405 -6.10672,-4.99655 -2.52902,-0.10417 -5.16166,1.43085 -7.89241,1.41195 -2.73077,0.0189 -5.3652,-1.51612 -7.89424,-1.41195 z"
       id="path4879"
       inkscape:connector-curvature="0" />
    <path
       inkscape:connector-curvature="0"
       id="path4881"
       d="m 485.23438,313.36212 c -4.8506,0 -6.7064,3.54074 -6.23805,8.95593 0.34008,3.93186 2.79251,8.35664 6.23805,8.35664 3.44549,0 5.76433,-4.4467 6.23987,-8.35664 0.60888,-5.00625 -1.38928,-8.95593 -6.23987,-8.95593 z m -8.12771,17.09178 c -3.04493,0.1525 -6.08258,1.6501 -6.10672,4.99655 0,4.40464 1.32865,9.24493 3.1026,15.91176 l 21.79489,0 c 1.77396,-6.66683 3.1026,-11.50712 3.1026,-15.91176 -0.0241,-3.34645 -3.06179,-4.84405 -6.10672,-4.99655 -2.52902,-0.10417 -5.16166,1.43085 -7.89241,1.41195 -2.73077,0.0189 -5.3652,-1.51612 -7.89424,-1.41195 z"
       style="opacity:1;fill:#cccccc;fill-opacity:1;fill-rule:nonzero;stroke:none;stroke-width:1;stroke-linecap:round;stroke-linejoin:round;stroke-miterlimit:4;stroke-dasharray:none;stroke-dashoffset:0;stroke-opacity:1" />
    <path
       style="opacity:1;fill:#000000;fill-opacity:1;fill-rule:nonzero;stroke:#ffffff;stroke-width:1;stroke-linecap:round;stroke-linejoin:round;stroke-miterlimit:4;stroke-dasharray:none;stroke-dashoffset:0;stroke-opacity:1"
       d="m 365.23438,273.36212 c -4.8506,0 -6.7064,3.54074 -6.23805,8.95593 0.34008,3.93186 2.79251,8.35664 6.23805,8.35664 3.44549,0 5.76433,-4.4467 6.23987,-8.35664 0.60888,-5.00625 -1.38928,-8.95593 -6.23987,-8.95593 z m -8.12771,17.09178 c -3.04493,0.1525 -6.08258,1.6501 -6.10672,4.99655 0,4.40464 1.32865,9.24493 3.1026,15.91176 l 21.79489,0 c 1.77396,-6.66683 3.1026,-11.50712 3.1026,-15.91176 -0.0241,-3.34645 -3.06179,-4.84405 -6.10672,-4.99655 -2.52902,-0.10417 -5.16166,1.43085 -7.89241,1.41195 -2.73077,0.0189 -5.3652,-1.51612 -7.89424,-1.41195 z"
       id="path4883"
       inkscape:connector-curvature="0" />
    <path
       inkscape:connector-curvature="0"
       id="path4885"
       d="m 395.23438,273.36212 c -4.8506,0 -6.7064,3.54074 -6.23805,8.95593 0.34008,3.93186 2.79251,8.35664 6.23805,8.35664 3.44549,0 5.76433,-4.4467 6.23987,-8.35664 0.60888,-5.00625 -1.38928,-8.95593 -6.23987,-8.95593 z m -8.12771,17.09178 c -3.04493,0.1525 -6.08258,1.6501 -6.10672,4.99655 0,4.40464 1.32865,9.24493 3.1026,15.91176 l 21.79489,0 c 1.77396,-6.66683 3.1026,-11.50712 3.1026,-15.91176 -0.0241,-3.34645 -3.06179,-4.84405 -6.10672,-4.99655 -2.52902,-0.10417 -5.16166,1.43085 -7.89241,1.41195 -2.73077,0.0189 -5.3652,-1.51612 -7.89424,-1.41195 z"
       style="opacity:1;fill:#000000;fill-opacity:1;fill-rule:nonzero;stroke:#ffffff;stroke-width:1;stroke-linecap:round;stroke-linejoin:round;stroke-miterlimit:4;stroke-dasharray:none;stroke-dashoffset:0;stroke-opacity:1" />
    <path
       style="opacity:1;fill:#000000;fill-opacity:1;fill-rule:nonzero;stroke:#ffffff;stroke-width:1;stroke-linecap:round;stroke-linejoin:round;stroke-miterlimit:4;stroke-dasharray:none;stroke-dashoffset:0;stroke-opacity:1"
       d="m 425.23438,273.36212 c -4.8506,0 -6.7064,3.54074 -6.23805,8.95593 0.34008,3.93186 2.79251,8.35664 6.23805,8.35664 3.44549,0 5.76433,-4.4467 6.23987,-8.35664 0.60888,-5.00625 -1.38928,-8.95593 -6.23987,-8.95593 z m -8.12771,17.09178 c -3.04493,0.1525 -6.08258,1.6501 -6.10672,4.99655 0,4.40464 1.32865,9.24493 3.1026,15.91176 l 21.79489,0 c 1.77396,-6.66683 3.1026,-11.50712 3.1026,-15.91176 -0.0241,-3.34645 -3.06179,-4.84405 -6.10672,-4.99655 -2.52902,-0.10417 -5.16166,1.43085 -7.89241,1.41195 -2.73077,0.0189 -5.3652,-1.51612 -7.89424,-1.41195 z"
       id="path4887"
       inkscape:connector-curvature="0" />
    <path
       inkscape:connector-curvature="0"
       id="path4889"
       d="m 455.23438,273.36212 c -4.8506,0 -6.7064,3.54074 -6.23805,8.95593 0.34008,3.93186 2.79251,8.35664 6.23805,8.35664 3.44549,0 5.76433,-4.4467 6.23987,-8.35664 0.60888,-5.00625 -1.38928,-8.95593 -6.23987,-8.95593 z m -8.12771,17.09178 c -3.04493,0.1525 -6.08258,1.6501 -6.10672,4.99655 0,4.40464 1.32865,9.24493 3.1026,15.91176 l 21.79489,0 c 1.77396,-6.66683 3.1026,-11.50712 3.1026,-15.91176 -0.0241,-3.34645 -3.06179,-4.84405 -6.10672,-4.99655 -2.52902,-0.10417 -5.16166,1.43085 -7.89241,1.41195 -2.73077,0.0189 -5.3652,-1.51612 -7.89424,-1.41195 z"
       style="opacity:1;fill:#cccccc;fill-opacity:1;fill-rule:nonzero;stroke:none;stroke-width:1;stroke-linecap:round;stroke-linejoin:round;stroke-miterlimit:4;stroke-dasharray:none;stroke-dashoffset:0;stroke-opacity:1" />
    <path
       style="opacity:1;fill:#cccccc;fill-opacity:1;fill-rule:nonzero;stroke:none;stroke-width:1;stroke-linecap:round;stroke-linejoin:round;stroke-miterlimit:4;stroke-dasharray:none;stroke-dashoffset:0;stroke-opacity:1"
       d="m 485.23438,273.36212 c -4.8506,0 -6.7064,3.54074 -6.23805,8.95593 0.34008,3.93186 2.79251,8.35664 6.23805,8.35664 3.44549,0 5.76433,-4.4467 6.23987,-8.35664 0.60888,-5.00625 -1.38928,-8.95593 -6.23987,-8.95593 z m -8.12771,17.09178 c -3.04493,0.1525 -6.08258,1.6501 -6.10672,4.99655 0,4.40464 1.32865,9.24493 3.1026,15.91176 l 21.79489,0 c 1.77396,-6.66683 3.1026,-11.50712 3.1026,-15.91176 -0.0241,-3.34645 -3.06179,-4.84405 -6.10672,-4.99655 -2.52902,-0.10417 -5.16166,1.43085 -7.89241,1.41195 -2.73077,0.0189 -5.3652,-1.51612 -7.89424,-1.41195 z"
       id="path4891"
       inkscape:connector-curvature="0" />
    <path
       style="opacity:1;fill:#294a8b;fill-opacity:1;fill-rule:nonzero;stroke:none;stroke-width:1;stroke-linecap:round;stroke-linejoin:round;stroke-miterlimit:4;stroke-dasharray:none;stroke-dashoffset:0;stroke-opacity:1"
       d="m 365.23438,213.86207 c -4.8506,0 -6.7064,3.54074 -6.23805,8.95593 0.34008,3.93186 2.79251,8.35664 6.23805,8.35664 3.44549,0 5.76433,-4.4467 6.23987,-8.35664 0.60888,-5.00625 -1.38928,-8.95593 -6.23987,-8.95593 z m -8.12771,17.09178 c -3.04493,0.1525 -6.08258,1.6501 -6.10672,4.99655 0,4.40464 1.32865,9.24493 3.1026,15.91176 l 21.79489,0 c 1.77396,-6.66683 3.1026,-11.50712 3.1026,-15.91176 -0.0241,-3.34645 -3.06179,-4.84405 -6.10672,-4.99655 -2.52902,-0.10417 -5.16166,1.43085 -7.89241,1.41195 -2.73077,0.0189 -5.3652,-1.51612 -7.89424,-1.41195 z"
       id="path4893"
       inkscape:connector-curvature="0" />
    <path
       inkscape:connector-curvature="0"
       id="path4895"
       d="m 395.23438,213.86207 c -4.8506,0 -6.7064,3.54074 -6.23805,8.95593 0.34008,3.93186 2.79251,8.35664 6.23805,8.35664 3.44549,0 5.76433,-4.4467 6.23987,-8.35664 0.60888,-5.00625 -1.38928,-8.95593 -6.23987,-8.95593 z m -8.12771,17.09178 c -3.04493,0.1525 -6.08258,1.6501 -6.10672,4.99655 0,4.40464 1.32865,9.24493 3.1026,15.91176 l 21.79489,0 c 1.77396,-6.66683 3.1026,-11.50712 3.1026,-15.91176 -0.0241,-3.34645 -3.06179,-4.84405 -6.10672,-4.99655 -2.52902,-0.10417 -5.16166,1.43085 -7.89241,1.41195 -2.73077,0.0189 -5.3652,-1.51612 -7.89424,-1.41195 z"
       style="opacity:1;fill:#294a8b;fill-opacity:1;fill-rule:nonzero;stroke:none;stroke-width:1;stroke-linecap:round;stroke-linejoin:round;stroke-miterlimit:4;stroke-dasharray:none;stroke-dashoffset:0;stroke-opacity:1" />
    <path
       style="opacity:1;fill:none;fill-opacity:1;fill-rule:nonzero;stroke:#8eb29b;stroke-width:1;stroke-linecap:round;stroke-linejoin:round;stroke-miterlimit:4;stroke-dasharray:none;stroke-dashoffset:0;stroke-opacity:1"
       d="m 425.23438,213.86207 c -4.8506,0 -6.7064,3.54074 -6.23805,8.95593 0.34008,3.93186 2.79251,8.35664 6.23805,8.35664 3.44549,0 5.76433,-4.4467 6.23987,-8.35664 0.60888,-5.00625 -1.38928,-8.95593 -6.23987,-8.95593 z m -8.12771,17.09178 c -3.04493,0.1525 -6.08258,1.6501 -6.10672,4.99655 0,4.40464 1.32865,9.24493 3.1026,15.91176 l 21.79489,0 c 1.77396,-6.66683 3.1026,-11.50712 3.1026,-15.91176 -0.0241,-3.34645 -3.06179,-4.84405 -6.10672,-4.99655 -2.52902,-0.10417 -5.16166,1.43085 -7.89241,1.41195 -2.73077,0.0189 -5.3652,-1.51612 -7.89424,-1.41195 z"
       id="path4897"
       inkscape:connector-curvature="0" />
    <path
       inkscape:connector-curvature="0"
       id="path4899"
       d="m 455.23438,213.86207 c -4.8506,0 -6.7064,3.54074 -6.23805,8.95593 0.34008,3.93186 2.79251,8.35664 6.23805,8.35664 3.44549,0 5.76433,-4.4467 6.23987,-8.35664 0.60888,-5.00625 -1.38928,-8.95593 -6.23987,-8.95593 z m -8.12771,17.09178 c -3.04493,0.1525 -6.08258,1.6501 -6.10672,4.99655 0,4.40464 1.32865,9.24493 3.1026,15.91176 l 21.79489,0 c 1.77396,-6.66683 3.1026,-11.50712 3.1026,-15.91176 -0.0241,-3.34645 -3.06179,-4.84405 -6.10672,-4.99655 -2.52902,-0.10417 -5.16166,1.43085 -7.89241,1.41195 -2.73077,0.0189 -5.3652,-1.51612 -7.89424,-1.41195 z"
       style="opacity:1;fill:none;fill-opacity:1;fill-rule:nonzero;stroke:#8eb29b;stroke-width:1;stroke-linecap:round;stroke-linejoin:round;stroke-miterlimit:4;stroke-dasharray:none;stroke-dashoffset:0;stroke-opacity:1" />
    <path
       style="opacity:1;fill:none;fill-opacity:1;fill-rule:nonzero;stroke:#af9195;stroke-width:1;stroke-linecap:round;stroke-linejoin:round;stroke-miterlimit:4;stroke-dasharray:none;stroke-dashoffset:0;stroke-opacity:1"
       d="m 485.23438,213.86207 c -4.8506,0 -6.7064,3.54074 -6.23805,8.95593 0.34008,3.93186 2.79251,8.35664 6.23805,8.35664 3.44549,0 5.76433,-4.4467 6.23987,-8.35664 0.60888,-5.00625 -1.38928,-8.95593 -6.23987,-8.95593 z m -8.12771,17.09178 c -3.04493,0.1525 -6.08258,1.6501 -6.10672,4.99655 0,4.40464 1.32865,9.24493 3.1026,15.91176 l 21.79489,0 c 1.77396,-6.66683 3.1026,-11.50712 3.1026,-15.91176 -0.0241,-3.34645 -3.06179,-4.84405 -6.10672,-4.99655 -2.52902,-0.10417 -5.16166,1.43085 -7.89241,1.41195 -2.73077,0.0189 -5.3652,-1.51612 -7.89424,-1.41195 z"
       id="path4901"
       inkscape:connector-curvature="0" />
    <path
       inkscape:connector-curvature="0"
       id="path4903"
       d="m 365.23438,173.86207 c -4.8506,0 -6.7064,3.54074 -6.23805,8.95593 0.34008,3.93186 2.79251,8.35664 6.23805,8.35664 3.44549,0 5.76433,-4.4467 6.23987,-8.35664 0.60888,-5.00625 -1.38928,-8.95593 -6.23987,-8.95593 z m -8.12771,17.09178 c -3.04493,0.1525 -6.08258,1.6501 -6.10672,4.99655 0,4.40464 1.32865,9.24493 3.1026,15.91176 l 21.79489,0 c 1.77396,-6.66683 3.1026,-11.50712 3.1026,-15.91176 -0.0241,-3.34645 -3.06179,-4.84405 -6.10672,-4.99655 -2.52902,-0.10417 -5.16166,1.43085 -7.89241,1.41195 -2.73077,0.0189 -5.3652,-1.51612 -7.89424,-1.41195 z"
       style="opacity:1;fill:#294a8b;fill-opacity:1;fill-rule:nonzero;stroke:none;stroke-width:1;stroke-linecap:round;stroke-linejoin:round;stroke-miterlimit:4;stroke-dasharray:none;stroke-dashoffset:0;stroke-opacity:1" />
    <path
       style="opacity:1;fill:#294a8b;fill-opacity:1;fill-rule:nonzero;stroke:none;stroke-width:1;stroke-linecap:round;stroke-linejoin:round;stroke-miterlimit:4;stroke-dasharray:none;stroke-dashoffset:0;stroke-opacity:1"
       d="m 395.23438,173.86207 c -4.8506,0 -6.7064,3.54074 -6.23805,8.95593 0.34008,3.93186 2.79251,8.35664 6.23805,8.35664 3.44549,0 5.76433,-4.4467 6.23987,-8.35664 0.60888,-5.00625 -1.38928,-8.95593 -6.23987,-8.95593 z m -8.12771,17.09178 c -3.04493,0.1525 -6.08258,1.6501 -6.10672,4.99655 0,4.40464 1.32865,9.24493 3.1026,15.91176 l 21.79489,0 c 1.77396,-6.66683 3.1026,-11.50712 3.1026,-15.91176 -0.0241,-3.34645 -3.06179,-4.84405 -6.10672,-4.99655 -2.52902,-0.10417 -5.16166,1.43085 -7.89241,1.41195 -2.73077,0.0189 -5.3652,-1.51612 -7.89424,-1.41195 z"
       id="path4905"
       inkscape:connector-curvature="0" />
    <path
       inkscape:connector-curvature="0"
       id="path4907"
       d="m 425.23438,173.86207 c -4.8506,0 -6.7064,3.54074 -6.23805,8.95593 0.34008,3.93186 2.79251,8.35664 6.23805,8.35664 3.44549,0 5.76433,-4.4467 6.23987,-8.35664 0.60888,-5.00625 -1.38928,-8.95593 -6.23987,-8.95593 z m -8.12771,17.09178 c -3.04493,0.1525 -6.08258,1.6501 -6.10672,4.99655 0,4.40464 1.32865,9.24493 3.1026,15.91176 l 21.79489,0 c 1.77396,-6.66683 3.1026,-11.50712 3.1026,-15.91176 -0.0241,-3.34645 -3.06179,-4.84405 -6.10672,-4.99655 -2.52902,-0.10417 -5.16166,1.43085 -7.89241,1.41195 -2.73077,0.0189 -5.3652,-1.51612 -7.89424,-1.41195 z"
       style="opacity:1;fill:#294a8b;fill-opacity:1;fill-rule:nonzero;stroke:none;stroke-width:1;stroke-linecap:round;stroke-linejoin:round;stroke-miterlimit:4;stroke-dasharray:none;stroke-dashoffset:0;stroke-opacity:1" />
    <path
       style="opacity:1;fill:none;fill-opacity:1;fill-rule:nonzero;stroke:#8eb29b;stroke-width:1;stroke-linecap:round;stroke-linejoin:round;stroke-miterlimit:4;stroke-dasharray:none;stroke-dashoffset:0;stroke-opacity:1"
       d="m 455.23438,173.86207 c -4.8506,0 -6.7064,3.54074 -6.23805,8.95593 0.34008,3.93186 2.79251,8.35664 6.23805,8.35664 3.44549,0 5.76433,-4.4467 6.23987,-8.35664 0.60888,-5.00625 -1.38928,-8.95593 -6.23987,-8.95593 z m -8.12771,17.09178 c -3.04493,0.1525 -6.08258,1.6501 -6.10672,4.99655 0,4.40464 1.32865,9.24493 3.1026,15.91176 l 21.79489,0 c 1.77396,-6.66683 3.1026,-11.50712 3.1026,-15.91176 -0.0241,-3.34645 -3.06179,-4.84405 -6.10672,-4.99655 -2.52902,-0.10417 -5.16166,1.43085 -7.89241,1.41195 -2.73077,0.0189 -5.3652,-1.51612 -7.89424,-1.41195 z"
       id="path4909"
       inkscape:connector-curvature="0" />
    <path
       inkscape:connector-curvature="0"
       id="path4911"
       d="m 485.23438,173.86207 c -4.8506,0 -6.7064,3.54074 -6.23805,8.95593 0.34008,3.93186 2.79251,8.35664 6.23805,8.35664 3.44549,0 5.76433,-4.4467 6.23987,-8.35664 0.60888,-5.00625 -1.38928,-8.95593 -6.23987,-8.95593 z m -8.12771,17.09178 c -3.04493,0.1525 -6.08258,1.6501 -6.10672,4.99655 0,4.40464 1.32865,9.24493 3.1026,15.91176 l 21.79489,0 c 1.77396,-6.66683 3.1026,-11.50712 3.1026,-15.91176 -0.0241,-3.34645 -3.06179,-4.84405 -6.10672,-4.99655 -2.52902,-0.10417 -5.16166,1.43085 -7.89241,1.41195 -2.73077,0.0189 -5.3652,-1.51612 -7.89424,-1.41195 z"
       style="opacity:1;fill:none;fill-opacity:1;fill-rule:nonzero;stroke:#af9195;stroke-width:1;stroke-linecap:round;stroke-linejoin:round;stroke-miterlimit:4;stroke-dasharray:none;stroke-dashoffset:0;stroke-opacity:1" />
    <path
       style="opacity:1;fill:#00ffff;fill-opacity:1;fill-rule:nonzero;stroke:none;stroke-width:1;stroke-linecap:round;stroke-linejoin:round;stroke-miterlimit:4;stroke-dasharray:none;stroke-dashoffset:0;stroke-opacity:1"
       d="m 525.23438,173.86207 c -4.8506,0 -6.7064,3.54074 -6.23805,8.95593 0.34008,3.93186 2.79251,8.35664 6.23805,8.35664 3.44549,0 5.76433,-4.4467 6.23987,-8.35664 0.60888,-5.00625 -1.38928,-8.95593 -6.23987,-8.95593 z m -8.12771,17.09178 c -3.04493,0.1525 -6.08258,1.6501 -6.10672,4.99655 0,4.40464 1.32865,9.24493 3.1026,15.91176 l 21.79489,0 c 1.77396,-6.66683 3.1026,-11.50712 3.1026,-15.91176 -0.0241,-3.34645 -3.06179,-4.84405 -6.10672,-4.99655 -2.52902,-0.10417 -5.16166,1.43085 -7.89241,1.41195 -2.73077,0.0189 -5.3652,-1.51612 -7.89424,-1.41195 z"
       id="path4915"
       inkscape:connector-curvature="0" />
    <rect
       style="opacity:1;fill:#8b2938;fill-opacity:1;fill-rule:nonzero;stroke:none;stroke-width:1;stroke-linecap:round;stroke-linejoin:round;stroke-miterlimit:4;stroke-dasharray:none;stroke-dashoffset:0;stroke-opacity:1"
       id="rect4917"
       width="20"
       height="20"
       x="300"
       y="42.362175"
       rx="0"
       ry="0" />
    <rect
       ry="0"
       rx="0"
       y="42.362175"
       x="380"
       height="19.999985"
       width="20"
       id="rect4919"
       style="opacity:1;fill:#294a8b;fill-opacity:1;fill-rule:nonzero;stroke:none;stroke-width:1;stroke-linecap:round;stroke-linejoin:round;stroke-miterlimit:4;stroke-dasharray:none;stroke-dashoffset:0;stroke-opacity:1" />
    <rect
       style="opacity:1;fill:#2a8a4c;fill-opacity:1;fill-rule:nonzero;stroke:none;stroke-width:1;stroke-linecap:round;stroke-linejoin:round;stroke-miterlimit:4;stroke-dasharray:none;stroke-dashoffset:0;stroke-opacity:1"
       id="rect4921"
       width="20"
       height="19.999985"
       x="340"
       y="42.362175"
       rx="0"
       ry="0" />
    <rect
       ry="0"
       rx="0"
       y="42.362175"
       x="320"
       height="20"
       width="20"
       id="rect4923"
       style="opacity:1;fill:#837630;fill-opacity:1;fill-rule:nonzero;stroke:none;stroke-width:1;stroke-linecap:round;stroke-linejoin:round;stroke-miterlimit:4;stroke-dasharray:none;stroke-dashoffset:0;stroke-opacity:1" />
    <rect
       style="opacity:1;fill:#89278d;fill-opacity:1;fill-rule:nonzero;stroke:none;stroke-width:1;stroke-linecap:round;stroke-linejoin:round;stroke-miterlimit:4;stroke-dasharray:none;stroke-dashoffset:0;stroke-opacity:1"
       id="rect4925"
       width="20"
       height="20"
       x="400"
       y="42.362175"
       rx="0"
       ry="0" />
    <rect
       ry="0"
       rx="0"
       y="42.362175"
       x="360"
       height="20"
       width="20"
       id="rect4927"
       style="opacity:1;fill:#1b9ea5;fill-opacity:1;fill-rule:nonzero;stroke:none;stroke-width:1;stroke-linecap:round;stroke-linejoin:round;stroke-miterlimit:4;stroke-dasharray:none;stroke-dashoffset:0;stroke-opacity:1" />
    <rect
       ry="0"
       rx="0"
       y="72.362175"
       x="300"
       height="20"
       width="20"
       id="rect4176"
       style="opacity:1;fill:#af9195;fill-opacity:1;fill-rule:nonzero;stroke:none;stroke-width:1;stroke-linecap:round;stroke-linejoin:round;stroke-miterlimit:4;stroke-dasharray:none;stroke-dashoffset:0;stroke-opacity:1" />
    <rect
       style="opacity:1;fill:#8e9bb2;fill-opacity:1;fill-rule:nonzero;stroke:none;stroke-width:1;stroke-linecap:round;stroke-linejoin:round;stroke-miterlimit:4;stroke-dasharray:none;stroke-dashoffset:0;stroke-opacity:1"
       id="rect4178"
       width="20"
       height="19.999985"
       x="380"
       y="72.362175"
       rx="0"
       ry="0" />
    <rect
       ry="0"
       rx="0"
       y="72.362175"
       x="340"
       height="19.999985"
       width="20"
       id="rect4180"
       style="opacity:1;fill:#8eb29b;fill-opacity:1;fill-rule:nonzero;stroke:none;stroke-width:1;stroke-linecap:round;stroke-linejoin:round;stroke-miterlimit:4;stroke-dasharray:none;stroke-dashoffset:0;stroke-opacity:1" />
    <rect
       style="opacity:1;fill:#b3ae8d;fill-opacity:1;fill-rule:nonzero;stroke:none;stroke-width:1;stroke-linecap:round;stroke-linejoin:round;stroke-miterlimit:4;stroke-dasharray:none;stroke-dashoffset:0;stroke-opacity:1"
       id="rect4182"
       width="20"
       height="20"
       x="320"
       y="72.362175"
       rx="0"
       ry="0" />
    <rect
       ry="0"
       rx="0"
       y="72.362175"
       x="400"
       height="20"
       width="20"
       id="rect4184"
       style="opacity:1;fill:#b18db3;fill-opacity:1;fill-rule:nonzero;stroke:none;stroke-width:1;stroke-linecap:round;stroke-linejoin:round;stroke-miterlimit:4;stroke-dasharray:none;stroke-dashoffset:0;stroke-opacity:1" />
    <rect
       style="opacity:1;fill:#8eb1b2;fill-opacity:1;fill-rule:nonzero;stroke:none;stroke-width:1;stroke-linecap:round;stroke-linejoin:round;stroke-miterlimit:4;stroke-dasharray:none;stroke-dashoffset:0;stroke-opacity:1"
       id="rect4186"
       width="20"
       height="20"
       x="360"
       y="72.362175"
       rx="0"
       ry="0" />
  </g>
</svg>
