<?xml version="1.0" encoding="UTF-8" standalone="no"?>
<!-- Created with Inkscape (http://www.inkscape.org/) -->

<svg
   xmlns:dc="http://purl.org/dc/elements/1.1/"
   xmlns:cc="http://creativecommons.org/ns#"
   xmlns:rdf="http://www.w3.org/1999/02/22-rdf-syntax-ns#"
   xmlns:svg="http://www.w3.org/2000/svg"
   xmlns="http://www.w3.org/2000/svg"
   xmlns:sodipodi="http://sodipodi.sourceforge.net/DTD/sodipodi-0.dtd"
   xmlns:inkscape="http://www.inkscape.org/namespaces/inkscape"
   width="210mm"
   height="297mm"
   viewBox="0 0 744.09448819 1052.3622047"
   id="svg5682"
   version="1.1"
   inkscape:version="0.91 r13725"
   sodipodi:docname="logo monocromo.svg">
  <defs
     id="defs5684" />
  <sodipodi:namedview
     id="base"
     pagecolor="#ffffff"
     bordercolor="#666666"
     borderopacity="1.0"
     inkscape:pageopacity="0.0"
     inkscape:pageshadow="2"
     inkscape:zoom="0.32096019"
     inkscape:cx="132.93098"
     inkscape:cy="635.35835"
     inkscape:document-units="px"
     inkscape:current-layer="layer1"
     showgrid="false"
     inkscape:snap-bbox="true"
     inkscape:snap-global="false"
     inkscape:window-width="1600"
     inkscape:window-height="852"
     inkscape:window-x="0"
     inkscape:window-y="0"
     inkscape:window-maximized="1" />
  <metadata
     id="metadata5687">
    <rdf:RDF>
      <cc:Work
         rdf:about="">
        <dc:format>image/svg+xml</dc:format>
        <dc:type
           rdf:resource="http://purl.org/dc/dcmitype/StillImage" />
        <dc:title></dc:title>
      </cc:Work>
    </rdf:RDF>
  </metadata>
  <g
     inkscape:label="Capa 1"
     inkscape:groupmode="layer"
     id="layer1">
    <path
       style="opacity:1;fill:#000000;fill-opacity:1;fill-rule:nonzero;stroke:none;stroke-width:8.77299976;stroke-linecap:round;stroke-linejoin:round;stroke-miterlimit:4;stroke-dasharray:none;stroke-dashoffset:0;stroke-opacity:1"
       d="m 377.60156,73.808594 -30.79101,17.777344 92.1875,53.224612 30.79101,-17.77539 -92.1875,-53.226566 z m -90.62109,18.605468 -31.0918,17.951168 152.4668,88.02539 -91.64453,52.91016 -152.46485,-88.02539 -30.45703,17.58399 29.50977,17.03906 30.65625,17.69922 92.01367,53.12304 -30.79102,17.77735 L 163.16406,233.375 132.91797,250.83594 376.66992,391.56641 682.33203,215.09375 530.52734,127.44922 439.0957,180.23633 286.98047,92.414062 Z m 252.88867,45.740238 2.18945,2.92773 c -1.19791,0.14039 -2.34494,0.39061 -3.4414,0.74805 -1.09626,0.31795 -2.10679,0.74442 -3.03321,1.2793 -1.68126,0.97068 -2.57682,2.01871 -2.68554,3.14453 -0.1085,1.08632 0.70634,2.13076 2.44531,3.13476 0.95473,0.5512 1.9439,0.94458 2.96875,1.17969 1.05917,0.21532 2.13616,0.3414 3.23047,0.37891 1.12865,0.0177 2.27587,-0.0337 3.43945,-0.1543 1.19792,-0.14039 2.44742,-0.29083 3.74805,-0.45117 1.30063,-0.16033 2.66824,-0.3008 4.10547,-0.42188 1.43724,-0.12109 2.89107,-0.13321 4.36133,-0.0371 1.47046,0.0566 2.95807,0.28159 4.46093,0.67383 1.50308,0.35274 2.98694,0.95233 4.45313,1.79883 1.3298,0.76776 2.38629,1.61428 3.16797,2.54101 0.78166,0.92673 1.18631,1.91241 1.21484,2.95899 0.0287,1.00709 -0.3539,2.05502 -1.14648,3.14258 -0.79238,1.04807 -2.07908,2.08707 -3.86328,3.11718 -1.64698,0.95087 -3.27643,1.67527 -4.88672,2.17188 -1.61029,0.4966 -3.20287,0.8446 -4.77735,1.04492 l -2.24219,-2.95703 c 1.43767,-0.20008 2.79121,-0.47058 4.0586,-0.80859 1.26759,-0.3775 2.51868,-0.92162 3.7539,-1.63477 1.85282,-1.06973 2.76617,-2.18844 2.73829,-3.35352 0.007,-1.18488 -0.8604,-2.27922 -2.59961,-3.2832 -0.92064,-0.53154 -1.89313,-0.91527 -2.91797,-1.15039 -1.02485,-0.23512 -2.08536,-0.37068 -3.17969,-0.4082 -1.06002,-0.0573 -2.15392,-0.0363 -3.2832,0.0644 -1.12929,0.10078 -2.27586,0.21144 -3.43946,0.33203 -1.33472,0.14065 -2.73744,0.28293 -4.20898,0.42383 -1.47155,0.14089 -2.97674,0.18342 -4.51562,0.12695 -1.5046,-0.0763 -3.02536,-0.30139 -4.5625,-0.67382 -1.5372,-0.37243 -3.03967,-0.98163 -4.50586,-1.82813 -1.43209,-0.82682 -2.48707,-1.71349 -3.16602,-2.66016 -0.64463,-0.96647 -0.94766,-1.93462 -0.9082,-2.90234 0.0738,-0.98752 0.49041,-1.95503 1.24804,-2.9043 0.79196,-0.96907 1.8901,-1.85966 3.29688,-2.67187 1.37246,-0.79238 2.81275,-1.42762 4.32031,-1.9043 1.50757,-0.47667 2.89558,-0.80435 4.16211,-0.98437 z m -284.65234,6.71875 -30.79102,17.77734 92.1875,53.22461 30.79102,-17.77539 -92.1875,-53.22656 z m 262.05859,5.26172 3.93945,2.27343 -11.375,6.56641 10.9961,6.34961 10.29492,-5.94336 3.83594,2.21484 -10.29492,5.94336 12.73632,7.35352 12.19727,-7.04297 3.9375,2.27344 -16.82813,9.71679 -35.44531,-20.46289 16.00586,-9.24218 z m -21.43555,13.43945 2.18946,2.92773 c -1.19791,0.1404 -2.34494,0.39061 -3.44141,0.74805 -1.09625,0.31795 -2.10679,0.74444 -3.0332,1.2793 -1.68127,0.97068 -2.57683,2.01871 -2.68555,3.14453 -0.10851,1.08632 0.70634,2.13077 2.44531,3.13476 0.95473,0.55121 1.94586,0.94457 2.97071,1.17969 1.05916,0.21531 2.13615,0.3414 3.23046,0.37891 1.12865,0.0177 2.27392,-0.0337 3.4375,-0.1543 1.19791,-0.1404 2.44743,-0.29083 3.74805,-0.45117 1.30064,-0.16034 2.67019,-0.30079 4.10742,-0.42188 1.43723,-0.12107 2.89107,-0.13319 4.36133,-0.0371 1.47048,0.0566 2.95613,0.28161 4.45899,0.67383 1.50307,0.35274 2.98693,0.95233 4.45312,1.79883 1.32979,0.76776 2.3863,1.61429 3.16797,2.54102 0.78167,0.92674 1.18632,1.9124 1.21484,2.95898 0.0287,1.00708 -0.35194,2.05502 -1.14453,3.14258 -0.79238,1.04807 -2.08103,2.08708 -3.86523,3.11719 -1.64696,0.95087 -3.27643,1.67527 -4.88672,2.17187 -1.61029,0.4966 -3.20286,0.84459 -4.77734,1.04492 l -2.24024,-2.95703 c 1.43766,-0.20008 2.78926,-0.47059 4.05664,-0.80859 1.26761,-0.3775 2.51869,-0.92162 3.75391,-1.63477 1.85282,-1.06973 2.76617,-2.18844 2.73828,-3.35351 0.007,-1.18488 -0.8604,-2.27922 -2.59961,-3.28321 -0.92063,-0.53153 -1.89312,-0.91331 -2.91797,-1.14843 -1.02485,-0.23512 -2.08341,-0.37264 -3.17773,-0.41016 -1.06002,-0.0573 -2.15587,-0.0344 -3.28516,0.0664 -1.12928,0.10078 -2.27585,0.21145 -3.43945,0.33203 -1.33472,0.14065 -2.73745,0.28097 -4.20899,0.42187 -1.47154,0.14089 -2.97674,0.18343 -4.51562,0.12696 -1.50458,-0.0763 -3.02534,-0.3014 -4.5625,-0.67383 -1.53717,-0.37243 -3.03772,-0.98163 -4.50391,-1.82813 -1.43208,-0.82682 -2.48901,-1.71348 -3.16797,-2.66015 -0.64463,-0.96648 -0.94569,-1.93465 -0.90625,-2.90235 0.0738,-0.98753 0.48846,-1.95502 1.2461,-2.90429 0.79196,-0.96907 1.89206,-1.85968 3.29883,-2.67188 1.37245,-0.7924 2.81275,-1.42763 4.32031,-1.9043 1.50757,-0.47667 2.89363,-0.80435 4.16015,-0.98437 z m 89.19922,8.77148 80.49414,46.47266 -9.54687,5.51172 c -6.66097,-1.4297 -13.9752,-2.88355 -21.94336,-4.36328 -7.95841,-1.57476 -16.09131,-3.04845 -24.39844,-4.42188 -8.29739,-1.46847 -16.60499,-2.84269 -24.92187,-4.12109 -8.39432,-1.32309 -16.35784,-2.44864 -23.89063,-3.375 l 61.67774,35.60937 -10.98633,6.3418 -80.49219,-46.47266 9.80664,-5.66211 c 8.11381,0.85915 16.21426,1.86159 24.29883,3.00586 8.17175,1.09393 16.12939,2.26507 23.875,3.51563 7.66815,1.20586 15.12323,2.49103 22.36523,3.85351 7.25176,1.26745 14.05306,2.52649 20.4043,3.77735 l -57.72656,-33.33008 10.98437,-6.3418 z m -112.97461,3.89258 35.44336,20.46289 -3.75781,2.16992 c -2.83523,-0.68605 -5.94389,-1.39067 -9.32617,-2.11523 -3.38207,-0.76404 -6.83225,-1.48902 -10.35156,-2.17383 -3.5191,-0.72431 -7.03907,-1.40938 -10.5586,-2.05469 -3.55363,-0.665 -6.91932,-1.24055 -10.09765,-1.72851 l 27.16015,15.67969 -4.32422,2.49609 -35.44336,-20.46484 3.85938,-2.22852 c 3.41788,0.46776 6.83471,0.99577 10.25195,1.58203 3.45154,0.56644 6.81746,1.16306 10.09766,1.78906 3.24611,0.60631 6.40765,1.24235 9.48242,1.90821 3.07497,0.62637 5.96132,1.24231 8.66016,1.84961 l -25.41993,-14.67578 4.32422,-2.4961 z m -28.67187,16.55274 3.9375,2.27343 -11.37305,6.56836 10.99609,6.34766 10.29297,-5.94336 3.83594,2.21484 -10.29297,5.94336 12.73438,7.35352 12.19922,-7.04297 3.9375,2.27344 -16.83008,9.71679 -35.44336,-20.46289 16.00586,-9.24218 z m -340.39453,5.8457 -30.246097,17.46289 29.509767,17.03711 30.24609,-17.46094 -29.50976,-17.03906 z m 319.35547,6.30078 3.9375,2.27539 -7.92579,4.57617 31.50586,18.18946 -4.63086,2.67382 -31.50585,-18.18945 -7.92579,4.57617 -3.93945,-2.27344 20.48438,-11.82812 z m 89.83593,9.46875 8.94336,5.16406 -28.90039,16.68555 24.97266,14.41797 26.1543,-15.10156 8.71093,5.03125 -26.15234,15.0996 28.91992,16.69727 30.99414,-17.89258 8.94336,5.16211 -42.76172,24.68946 -80.49414,-46.47266 40.66992,-23.48047 z m -119.77734,7.81836 c 3.38078,1.00102 6.77869,2.03159 10.19336,3.0918 3.41489,1.02071 6.93174,2.1396 10.55078,3.35742 3.65335,1.19802 7.45992,2.50524 11.41992,3.91992 3.99433,1.39487 8.24422,2.93679 12.75,4.62695 l -4.63086,2.67383 c -1.80887,-0.7274 -3.61863,-1.43319 -5.42773,-2.12109 -1.77477,-0.70771 -3.56591,-1.40584 -5.375,-2.09375 l -11.2207,6.47656 c 1.15717,1.06428 2.34842,2.1101 3.57421,3.13477 1.2258,1.02467 2.46863,2.05915 3.72852,3.10351 l -4.47656,2.58399 c -2.96176,-2.58161 -5.65236,-5.02591 -8.06836,-7.33204 -2.41599,-2.30612 -4.67779,-4.50233 -6.78711,-6.59179 -2.07502,-2.10926 -4.01417,-4.14003 -5.81641,-6.0918 -1.80202,-1.99128 -3.56891,-3.96413 -5.30273,-5.91601 l 4.88867,-2.82227 z m 2.69531,4.46875 c 1.9723,2.1292 3.99529,4.24816 6.07031,6.35742 2.07502,2.10926 4.25318,4.23833 6.53321,6.38672 L 417.12891,234 c -3.6868,-1.33619 -7.35642,-2.60472 -11.00977,-3.80273 -3.65335,-1.19801 -7.32384,-2.36521 -11.01172,-3.50391 z m -324.226561,4.81836 0,35.91211 306.542971,176.98242 306.54101,-176.98242 0,-35.91211 L 377.42383,408.49414 70.880859,231.51172 Z m 292.078121,7.71875 31.50586,18.18945 11.27149,-6.50781 3.93945,2.27344 -15.9043,9.18164 -35.44336,-20.46289 4.63086,-2.67383 z m 97.25782,8.40039 5.18164,7.06836 c -3.3313,0.4927 -6.60492,1.21936 -9.82032,2.18164 -3.12821,0.91195 -6.26188,2.27393 -9.40039,4.08594 -6.97445,4.02671 -9.43634,8.44457 -7.38671,13.25195 1.97218,4.76267 8.37789,10.27423 19.21875,16.5332 10.91828,6.30367 20.97592,10.19659 30.17382,11.68164 9.1979,1.48504 17.54544,0.0631 25.04297,-4.26562 3.5744,-2.06368 6.06553,-3.94693 7.47071,-5.65235 1.49234,-1.75575 2.66419,-3.59621 3.51757,-5.51953 l 11.51563,2.875 c -0.61133,1.9624 -2.06879,4.18973 -4.375,6.6836 -2.21904,2.44354 -5.46448,4.89888 -9.73633,7.36523 -10.63604,6.14072 -22.3121,8.81227 -35.02539,8.01563 -12.71329,-0.79663 -26.42609,-5.44124 -41.13867,-13.93555 -7.51116,-4.33657 -13.07645,-8.45604 -16.69531,-12.35742 -3.5317,-3.9517 -5.48409,-7.69763 -5.85938,-11.23633 -0.3753,-3.53871 0.70116,-6.84237 3.23047,-9.91211 2.45187,-3.11445 5.9888,-6.00614 10.60937,-8.67383 3.83595,-2.21468 7.87511,-4.00856 12.11719,-5.38476 4.16464,-1.4209 7.95065,-2.35669 11.35938,-2.80469 z m -107.40625,0.94141 c 1.46843,0.0381 2.94583,0.24846 4.43164,0.63085 2.01539,0.49005 4.02927,1.31703 6.04101,2.47852 2.04585,1.18116 3.50969,2.36361 4.39258,3.54688 0.84879,1.16358 1.20161,2.31726 1.0586,3.46289 -0.17713,1.12595 -0.81549,2.2437 -1.91602,3.35156 -1.06623,1.08806 -2.50961,2.15711 -4.32813,3.20703 l -2.16015,1.24805 13.14453,7.58789 -4.63281,2.67383 -34.93164,-20.16797 c 1.82216,-1.72135 3.88081,-3.24501 6.17968,-4.57227 1.7842,-1.03011 3.61956,-1.83407 5.50391,-2.41015 1.88457,-0.61559 3.80197,-0.95481 5.75195,-1.01758 0.48755,-0.0256 0.97537,-0.0322 1.46485,-0.0195 z m -2.05078,3.7832 c -1.16296,0.002 -2.2922,0.18151 -3.38868,0.53906 -1.09647,0.35744 -2.15816,0.83345 -3.1875,1.42774 -0.8921,0.51505 -1.66579,1.02075 -2.31836,1.51562 l 14.42383,8.32617 1.85352,-1.06836 c 1.16658,-0.67353 2.09351,-1.34687 2.78125,-2.01953 0.68794,-0.71216 1.06836,-1.4237 1.14062,-2.13476 0.0723,-0.71104 -0.1803,-1.43248 -0.75781,-2.16211 -0.57751,-0.72962 -1.54821,-1.48794 -2.91211,-2.27539 -1.36389,-0.78744 -2.67765,-1.34821 -3.94141,-1.68164 -1.29784,-0.35311 -2.53019,-0.5084 -3.69335,-0.4668 z m -24.66797,11.52344 c 1.44274,0.0455 2.89328,0.25151 4.35351,0.61914 1.98129,0.47036 3.96181,1.27617 5.93946,2.41797 2.45502,1.41741 3.9693,2.84655 4.54296,4.2871 0.57388,1.40107 0.4456,2.79392 -0.38281,4.17774 1.09369,0.15603 2.5464,0.39998 4.35742,0.73242 1.81123,0.29294 3.75974,0.66481 5.84375,1.11524 2.08423,0.41094 4.18484,0.87124 6.30274,1.38086 2.1522,0.48981 4.13342,0.99937 5.94336,1.52929 l -4.63281,2.67383 c -1.40036,-0.37268 -3.03897,-0.76447 -4.91797,-1.17578 -1.8447,-0.43111 -3.70673,-0.83327 -5.58594,-1.20508 -1.91331,-0.3915 -3.75823,-0.74194 -5.53516,-1.05469 -1.81101,-0.33243 -3.36732,-0.59784 -4.66601,-0.79297 -0.48078,0.35634 -0.99571,0.71388 -1.54492,1.07032 -0.54922,0.35644 -1.11592,0.7023 -1.69922,1.03906 l -1.28516,0.74219 13.80859,7.97461 -4.52929,2.61328 -34.93164,-20.16797 c 1.82216,-1.72135 3.84787,-3.22603 6.07812,-4.51367 1.78421,-1.03011 3.60092,-1.84172 5.45117,-2.4375 1.85026,-0.59577 3.73451,-0.93512 5.65039,-1.01758 0.47897,-0.0206 0.95854,-0.0228 1.43946,-0.008 z m -1.11719,3.79297 c -0.28854,-0.0106 -0.57516,-0.008 -0.85742,0.008 -1.12886,0.0218 -2.24142,0.21093 -3.33789,0.56836 -1.06216,0.33764 -2.10738,0.80218 -3.13672,1.39648 -0.8921,0.51505 -1.66383,1.02076 -2.31641,1.51563 l 14.01367,8.09179 1.95508,-1.1289 c 2.3675,-1.36688 3.65859,-2.72318 3.8711,-4.06641 0.17841,-1.36292 -1.04638,-2.80253 -3.67188,-4.31836 -1.32981,-0.76777 -2.60824,-1.30735 -3.83789,-1.62109 -0.92207,-0.26492 -1.81602,-0.41355 -2.68164,-0.44531 z m -32.88281,12.47265 c 3.38078,1.00102 6.77869,2.03159 10.19336,3.0918 3.41488,1.02072 6.93174,2.14155 10.55078,3.35937 3.65334,1.19801 7.45991,2.50329 11.41992,3.91797 3.99432,1.39487 8.24422,2.93679 12.75,4.62695 l -4.63281,2.67579 c -1.80887,-0.7274 -3.61668,-1.43514 -5.42578,-2.12305 -1.77478,-0.70771 -3.56786,-1.40585 -5.37696,-2.09375 l -11.21875,6.47851 c 1.15718,1.0643 2.34843,2.10816 3.57422,3.13282 1.2258,1.02468 2.46863,2.05915 3.72852,3.10351 l -4.47852,2.58594 c -2.96176,-2.58161 -5.65042,-5.0259 -8.0664,-7.33203 -2.416,-2.3061 -4.67779,-4.5043 -6.78711,-6.59375 -2.07502,-2.10929 -4.01418,-4.14003 -5.81641,-6.0918 -1.80203,-1.99127 -3.57087,-3.96216 -5.30469,-5.91406 l 4.89063,-2.82422 z m 2.69531,4.46875 c 1.9723,2.12919 3.9953,4.24815 6.07031,6.35742 2.07502,2.10926 4.25317,4.23833 6.5332,6.38672 l 9.41797,-5.4375 c -3.6868,-1.33618 -7.35642,-2.60277 -11.00976,-3.80078 -3.65335,-1.19802 -7.32384,-2.36716 -11.01172,-3.50586 z m 93.48828,1.33399 80.49414,46.47265 -11.76953,6.79492 -80.49414,-46.47265 11.76953,-6.79492 z m -117.00586,6.21875 c 2.79748,1.33779 5.71425,2.78527 8.75,4.33984 3.07005,1.53481 6.19136,3.13773 9.36328,4.81055 3.17214,1.63334 6.3773,3.32642 9.61719,5.07812 3.2058,1.732 6.39471,3.4537 9.56641,5.16602 l -4.42579,2.55664 c -2.31907,-1.25965 -4.75869,-2.58884 -7.3164,-3.98633 -2.52339,-1.41728 -5.0798,-2.81572 -7.67188,-4.19336 -2.59185,-1.41714 -5.11662,-2.7753 -7.57226,-4.07422 -2.48975,-1.31861 -4.79135,-2.50775 -6.90625,-3.57031 0.54364,0.67045 1.22372,1.51757 2.03906,2.54297 0.81555,0.98592 1.71556,2.06127 2.70117,3.22461 1.01992,1.14353 2.05578,2.33591 3.10938,3.57812 1.0538,1.2027 2.07472,2.3664 3.06054,3.49024 1.02014,1.10403 1.95461,2.11831 2.80469,3.04492 0.8503,0.88712 1.54753,1.60624 2.0918,2.1582 l -3.91211,2.25977 c -3.14125,-1.02121 -6.197,-1.97416 -9.16797,-2.85742 -2.97097,-0.88329 -5.78728,-1.69775 -8.45117,-2.44336 -2.66367,-0.78509 -5.12267,-1.47219 -7.37695,-2.06055 -2.25429,-0.58836 -4.25392,-1.08844 -5.9961,-1.5 1.80631,1.20135 3.83615,2.51191 6.08594,3.92969 2.24999,1.37828 4.55026,2.80637 6.90234,4.2832 2.38639,1.45702 4.79045,2.92367 7.21094,4.40039 2.4207,1.43721 4.73896,2.81568 6.95508,4.13477 l -4.42578,2.55468 c -2.96584,-1.83118 -5.94929,-3.67256 -8.94922,-5.52343 -3.03403,-1.87055 -5.98237,-3.71181 -8.8457,-5.52344 -2.86311,-1.85111 -5.64136,-3.65356 -8.33399,-5.40625 -2.65831,-1.7725 -5.14576,-3.46496 -7.46289,-5.08008 l 4.58008,-2.64453 c 2.08379,0.48994 4.54388,1.09672 7.37891,1.82226 2.8009,0.70586 5.70348,1.47096 8.70898,2.29493 3.03981,0.80416 6.04444,1.62886 9.01562,2.47265 2.97119,0.84378 5.65273,1.63868 8.04297,2.38477 -1.29227,-1.38 -2.68584,-2.91767 -4.18164,-4.61328 -1.49578,-1.6956 -2.9576,-3.41127 -4.38476,-5.14649 -1.42717,-1.73523 -2.76851,-3.4027 -4.02539,-5 -1.25668,-1.6368 -2.30963,-3.05668 -3.15821,-4.25976 l 4.58008,-2.64453 z m 84.93945,21.95312 c 6.6523,-0.0853 13.48302,0.88848 20.49219,2.92188 7.01891,1.93835 14.28376,5.07554 21.79492,9.4121 7.51116,4.33657 12.98321,8.55333 16.41797,12.6504 3.44451,4.00204 5.0931,7.92297 4.94532,11.76367 -0.0606,3.79038 -1.75249,7.4955 -5.07618,11.11328 -3.23649,3.56746 -7.77608,7.03584 -13.61718,10.4082 -5.92828,3.42269 -12.90233,6.64538 -20.92188,9.66602 l -78.05273,-45.06446 c 2.69338,-2.27034 5.41468,-4.42344 8.16601,-6.45898 2.75133,-2.03555 5.5664,-3.8839 8.44336,-5.54492 5.92828,-3.42269 11.98114,-6.0689 18.16016,-7.9375 6.26619,-1.91892 12.68292,-2.8947 19.24804,-2.92969 z m -4.07226,8.73828 c -3.40422,0.0542 -6.78484,0.54696 -10.14063,1.47852 -4.3872,1.19174 -8.84746,3.09554 -13.38086,5.71289 -1.22052,0.70468 -2.40182,1.43226 -3.54492,2.18164 -1.1431,0.74938 -2.29052,1.5462 -3.44336,2.39062 l 62.72071,36.21289 c 1.46257,-0.66559 2.84265,-1.32831 4.14062,-1.98828 1.29796,-0.65997 2.51509,-1.31831 3.64844,-1.97265 4.62057,-2.66768 7.96318,-5.26783 10.02734,-7.80078 2.06417,-2.53295 2.85948,-5.09334 2.38672,-7.68165 -0.46301,-2.68333 -2.22925,-5.46335 -5.29687,-8.34179 -3.06761,-2.87843 -7.5049,-5.99465 -13.3125,-9.34766 -5.73017,-3.30832 -11.08863,-5.84806 -16.07422,-7.61914 -4.98558,-1.7711 -9.75785,-2.81515 -14.31836,-3.13281 -1.14013,-0.0794 -2.27737,-0.10986 -3.41211,-0.0918 z"
       id="rect6680"
       inkscape:connector-curvature="0" />
    <rect
       style="opacity:1;fill:#000000;fill-opacity:1;fill-rule:nonzero;stroke:none;stroke-width:8.77299976;stroke-linecap:round;stroke-linejoin:round;stroke-miterlimit:4;stroke-dasharray:none;stroke-dashoffset:0;stroke-opacity:1"
       id="rect6705"
       width="746.19849"
       height="486.0416"
       x="-3.1156516"
       y="528.42932" />
    <path
       style="opacity:1;fill:#ffffff;fill-opacity:1;fill-rule:nonzero;stroke:none;stroke-width:8.77299976;stroke-linecap:round;stroke-linejoin:round;stroke-miterlimit:4;stroke-dasharray:none;stroke-dashoffset:0;stroke-opacity:1"
       d="m 377.60156,595.67967 -30.79101,17.77734 92.1875,53.22461 30.79101,-17.77539 -92.1875,-53.22656 z m -90.62109,18.60547 -31.0918,17.95117 152.4668,88.02539 -91.64453,52.91015 -152.46485,-88.02539 -30.45703,17.58399 29.50977,17.03906 30.65625,17.69922 92.01367,53.12305 -30.79102,17.77734 -92.01367,-53.12305 -30.24609,17.46094 L 376.66992,913.43748 682.33203,736.96482 530.52734,649.32029 439.0957,702.1074 286.98047,614.28514 Z m 252.88867,45.74023 2.18945,2.92773 c -1.19791,0.14039 -2.34494,0.39061 -3.4414,0.74805 -1.09626,0.31795 -2.10679,0.74443 -3.03321,1.2793 -1.68126,0.97068 -2.57682,2.01871 -2.68554,3.14453 -0.1085,1.08632 0.70634,2.13076 2.44531,3.13476 0.95473,0.5512 1.9439,0.94458 2.96875,1.17969 1.05917,0.21532 2.13616,0.3414 3.23047,0.37891 1.12865,0.0177 2.27587,-0.0337 3.43945,-0.1543 1.19792,-0.14039 2.44742,-0.29083 3.74805,-0.45117 1.30063,-0.16033 2.66824,-0.30079 4.10547,-0.42187 1.43724,-0.12109 2.89107,-0.13321 4.36133,-0.0371 1.47046,0.0566 2.95807,0.28158 4.46093,0.67382 1.50308,0.35274 2.98694,0.95233 4.45313,1.79883 1.3298,0.76776 2.38629,1.61429 3.16797,2.54102 0.78166,0.92673 1.18631,1.9124 1.21484,2.95898 0.0287,1.00709 -0.3539,2.05502 -1.14648,3.14258 -0.79238,1.04807 -2.07908,2.08708 -3.86328,3.11719 -1.64698,0.95087 -3.27643,1.67526 -4.88672,2.17187 -1.61029,0.4966 -3.20287,0.8446 -4.77735,1.04492 l -2.24219,-2.95703 c 1.43767,-0.20008 2.79121,-0.47058 4.0586,-0.80859 1.26759,-0.3775 2.51868,-0.92162 3.7539,-1.63477 1.85282,-1.06973 2.76617,-2.18844 2.73829,-3.35351 0.007,-1.18488 -0.8604,-2.27923 -2.59961,-3.2832 -0.92064,-0.53154 -1.89313,-0.91528 -2.91797,-1.1504 -1.02485,-0.23512 -2.08536,-0.37068 -3.17969,-0.4082 -1.06002,-0.0573 -2.15392,-0.0363 -3.2832,0.0645 -1.12929,0.10078 -2.27586,0.21145 -3.43946,0.33204 -1.33472,0.14065 -2.73744,0.28292 -4.20898,0.42382 -1.47155,0.14089 -2.97674,0.18343 -4.51562,0.12696 -1.5046,-0.0763 -3.02536,-0.3014 -4.5625,-0.67383 -1.5372,-0.37243 -3.03967,-0.98163 -4.50586,-1.82813 -1.43209,-0.82682 -2.48707,-1.71348 -3.16602,-2.66015 -0.64463,-0.96647 -0.94766,-1.93463 -0.9082,-2.90235 0.0738,-0.98752 0.49041,-1.95502 1.24804,-2.90429 0.79196,-0.96907 1.8901,-1.85967 3.29688,-2.67188 1.37246,-0.79238 2.81275,-1.42762 4.32031,-1.9043 1.50757,-0.47667 2.89558,-0.80435 4.16211,-0.98437 z m -284.65234,6.71875 -30.79102,17.77734 92.1875,53.22461 30.79102,-17.77539 -92.1875,-53.22656 z m 262.05859,5.26172 3.93945,2.27344 -11.375,6.5664 10.9961,6.34961 10.29492,-5.94336 3.83594,2.21485 -10.29492,5.94336 12.73632,7.35351 12.19727,-7.04297 3.9375,2.27344 -16.82813,9.7168 -35.44531,-20.46289 16.00586,-9.24219 z m -21.43555,13.43945 2.18946,2.92774 c -1.19791,0.1404 -2.34494,0.3906 -3.44141,0.74804 -1.09625,0.31795 -2.10679,0.74444 -3.0332,1.2793 -1.68127,0.97068 -2.57683,2.01871 -2.68555,3.14453 -0.10851,1.08632 0.70634,2.13078 2.44531,3.13477 0.95473,0.55121 1.94586,0.94456 2.97071,1.17968 1.05916,0.21531 2.13615,0.3414 3.23046,0.37891 1.12865,0.0177 2.27392,-0.0337 3.4375,-0.1543 1.19791,-0.1404 2.44743,-0.29083 3.74805,-0.45117 1.30064,-0.16034 2.67019,-0.30078 4.10742,-0.42187 1.43723,-0.12107 2.89107,-0.13319 4.36133,-0.0371 1.47048,0.0566 2.95613,0.28161 4.45899,0.67383 1.50307,0.35274 2.98693,0.95232 4.45312,1.79882 1.32979,0.76776 2.3863,1.61429 3.16797,2.54102 0.78167,0.92674 1.18632,1.9124 1.21484,2.95898 0.0287,1.00708 -0.35194,2.05502 -1.14453,3.14258 -0.79238,1.04807 -2.08103,2.08708 -3.86523,3.11719 -1.64696,0.95087 -3.27643,1.67527 -4.88672,2.17187 -1.61029,0.4966 -3.20286,0.8446 -4.77734,1.04493 l -2.24024,-2.95703 c 1.43766,-0.20008 2.78926,-0.4706 4.05664,-0.8086 1.26761,-0.3775 2.51869,-0.92161 3.75391,-1.63476 1.85282,-1.06973 2.76617,-2.18845 2.73828,-3.35352 0.007,-1.18488 -0.8604,-2.27921 -2.59961,-3.2832 -0.92063,-0.53153 -1.89312,-0.91332 -2.91797,-1.14844 -1.02485,-0.23512 -2.08341,-0.37264 -3.17773,-0.41016 -1.06002,-0.0573 -2.15587,-0.0344 -3.28516,0.0664 -1.12928,0.10078 -2.27585,0.21145 -3.43945,0.33203 -1.33472,0.14065 -2.73745,0.28098 -4.20899,0.42188 -1.47154,0.14089 -2.97674,0.18342 -4.51562,0.12695 -1.50458,-0.0763 -3.02534,-0.3014 -4.5625,-0.67383 -1.53717,-0.37243 -3.03772,-0.98162 -4.50391,-1.82812 -1.43208,-0.82682 -2.48901,-1.71349 -3.16797,-2.66016 -0.64463,-0.96648 -0.94569,-1.93464 -0.90625,-2.90234 0.0738,-0.98753 0.48846,-1.95503 1.2461,-2.9043 0.79196,-0.96907 1.89206,-1.85968 3.29883,-2.67188 1.37245,-0.7924 2.81275,-1.42762 4.32031,-1.90429 1.50757,-0.47667 2.89363,-0.80436 4.16015,-0.98438 z m 89.19922,8.77149 80.49414,46.47265 -9.54687,5.51172 c -6.66097,-1.4297 -13.9752,-2.88355 -21.94336,-4.36328 -7.95841,-1.57476 -16.09131,-3.04845 -24.39844,-4.42187 -8.29739,-1.46848 -16.60499,-2.8427 -24.92187,-4.1211 -8.39432,-1.32309 -16.35784,-2.44864 -23.89063,-3.375 l 61.67774,35.60938 -10.98633,6.34179 -80.49219,-46.47265 9.80664,-5.66211 c 8.11381,0.85915 16.21426,1.86159 24.29883,3.00586 8.17175,1.09393 16.12939,2.26506 23.875,3.51562 7.66815,1.20586 15.12323,2.49104 22.36523,3.85352 7.25176,1.26745 14.05306,2.52648 20.4043,3.77734 l -57.72656,-33.33008 10.98437,-6.34179 z m -112.97461,3.89257 35.44336,20.46289 -3.75781,2.16993 c -2.83523,-0.68605 -5.94389,-1.39068 -9.32617,-2.11524 -3.38207,-0.76404 -6.83225,-1.48902 -10.35156,-2.17383 -3.5191,-0.72431 -7.03907,-1.40937 -10.5586,-2.05468 -3.55363,-0.665 -6.91932,-1.24056 -10.09765,-1.72852 l 27.16015,15.67969 -4.32422,2.49609 -35.44336,-20.46484 3.85938,-2.22852 c 3.41788,0.46776 6.83471,0.99577 10.25195,1.58203 3.45154,0.56644 6.81746,1.16307 10.09766,1.78907 3.24611,0.60631 6.40765,1.24234 9.48242,1.9082 3.07497,0.62637 5.96132,1.24231 8.66016,1.84961 l -25.41993,-14.67578 4.32422,-2.4961 z m -28.67187,16.55274 3.9375,2.27344 -11.37305,6.56836 10.99609,6.34765 10.29297,-5.94336 3.83594,2.21485 -10.29297,5.94336 12.73438,7.35351 12.19922,-7.04297 3.9375,2.27344 -16.83008,9.7168 -35.44336,-20.46289 16.00586,-9.24219 z m -340.39453,5.8457 -30.246097,17.46289 29.509767,17.03711 30.24609,-17.46094 -29.50976,-17.03906 z m 319.35547,6.30078 3.9375,2.27539 -7.92579,4.57618 31.50586,18.18945 -4.63086,2.67383 -31.50585,-18.18946 -7.92579,4.57618 -3.93945,-2.27344 20.48438,-11.82813 z m 89.83593,9.46875 8.94336,5.16407 -28.90039,16.68554 24.97266,14.41797 26.1543,-15.10156 8.71093,5.03125 -26.15234,15.09961 28.91992,16.69726 30.99414,-17.89257 8.94336,5.16211 -42.76172,24.68945 -80.49414,-46.47266 40.66992,-23.48047 z m -119.77734,7.81836 c 3.38078,1.00102 6.77869,2.03159 10.19336,3.0918 3.41489,1.02071 6.93174,2.1396 10.55078,3.35742 3.65335,1.19802 7.45992,2.50524 11.41992,3.91992 3.99433,1.39487 8.24422,2.9368 12.75,4.62696 l -4.63086,2.67382 c -1.80887,-0.7274 -3.61863,-1.43319 -5.42773,-2.12109 -1.77477,-0.70771 -3.56591,-1.40584 -5.375,-2.09375 l -11.2207,6.47656 c 1.15717,1.06428 2.34842,2.1101 3.57421,3.13477 1.2258,1.02467 2.46863,2.05915 3.72852,3.10351 l -4.47656,2.58399 c -2.96176,-2.58161 -5.65236,-5.0259 -8.06836,-7.33203 -2.41599,-2.30612 -4.67779,-4.50234 -6.78711,-6.5918 -2.07502,-2.10926 -4.01417,-4.14003 -5.81641,-6.0918 -1.80202,-1.99128 -3.56891,-3.96412 -5.30273,-5.91601 l 4.88867,-2.82227 z m 2.69531,4.46875 c 1.9723,2.1292 3.99529,4.24816 6.07031,6.35742 2.07502,2.10926 4.25318,4.23833 6.53321,6.38672 l 9.41797,-5.4375 c -3.6868,-1.33619 -7.35642,-2.60472 -11.00977,-3.80273 -3.65335,-1.19801 -7.32384,-2.36521 -11.01172,-3.50391 z m -324.226561,4.81836 0,35.91211 306.542971,176.98242 306.54101,-176.98242 0,-35.91211 L 377.42383,930.36521 70.880859,753.38279 Z m 292.078121,7.71875 31.50586,18.18946 11.27149,-6.50782 3.93945,2.27344 -15.9043,9.18164 -35.44336,-20.46289 4.63086,-2.67383 z m 97.25782,8.40039 5.18164,7.06836 c -3.3313,0.4927 -6.60492,1.21936 -9.82032,2.18164 -3.12821,0.91195 -6.26188,2.27393 -9.40039,4.08594 -6.97445,4.02671 -9.43634,8.44457 -7.38671,13.25195 1.97218,4.76267 8.37789,10.27424 19.21875,16.53321 10.91828,6.30367 20.97592,10.19659 30.17382,11.68164 9.1979,1.48504 17.54544,0.0631 25.04297,-4.26563 3.5744,-2.06368 6.06553,-3.94693 7.47071,-5.65234 1.49234,-1.75575 2.66419,-3.59621 3.51757,-5.51953 l 11.51563,2.875 c -0.61133,1.9624 -2.06879,4.18972 -4.375,6.68359 -2.21904,2.44354 -5.46448,4.89889 -9.73633,7.36524 -10.63604,6.14071 -22.3121,8.81226 -35.02539,8.01562 -12.71329,-0.79663 -26.42609,-5.44124 -41.13867,-13.93555 -7.51116,-4.33657 -13.07645,-8.45604 -16.69531,-12.35742 -3.5317,-3.9517 -5.48409,-7.69763 -5.85938,-11.23633 -0.3753,-3.53871 0.70116,-6.84237 3.23047,-9.91211 2.45187,-3.11445 5.9888,-6.00613 10.60937,-8.67382 3.83595,-2.21468 7.87511,-4.00857 12.11719,-5.38477 4.16464,-1.4209 7.95065,-2.35669 11.35938,-2.80469 z m -107.40625,0.94141 c 1.46843,0.0381 2.94583,0.24847 4.43164,0.63086 2.01539,0.49005 4.02927,1.31702 6.04101,2.47851 2.04585,1.18116 3.50969,2.36361 4.39258,3.54688 0.84879,1.16358 1.20161,2.31726 1.0586,3.46289 -0.17713,1.12595 -0.81549,2.2437 -1.91602,3.35156 -1.06623,1.08806 -2.50961,2.15711 -4.32813,3.20703 l -2.16015,1.24805 13.14453,7.58789 -4.63281,2.67383 -34.93164,-20.16797 c 1.82216,-1.72135 3.88081,-3.24501 6.17968,-4.57227 1.7842,-1.03011 3.61956,-1.83406 5.50391,-2.41015 1.88457,-0.61559 3.80197,-0.95481 5.75195,-1.01758 0.48755,-0.0256 0.97537,-0.0322 1.46485,-0.0195 z m -2.05078,3.7832 c -1.16296,0.002 -2.2922,0.18151 -3.38868,0.53906 -1.09647,0.35744 -2.15816,0.83345 -3.1875,1.42774 -0.8921,0.51505 -1.66579,1.02075 -2.31836,1.51562 l 14.42383,8.32618 1.85352,-1.06836 c 1.16658,-0.67353 2.09351,-1.34687 2.78125,-2.01954 0.68794,-0.71216 1.06836,-1.4237 1.14062,-2.13476 0.0723,-0.71104 -0.1803,-1.43248 -0.75781,-2.16211 -0.57751,-0.72962 -1.54821,-1.48794 -2.91211,-2.27539 -1.36389,-0.78744 -2.67765,-1.34821 -3.94141,-1.68164 -1.29784,-0.35311 -2.53019,-0.5084 -3.69335,-0.4668 z m -24.66797,11.52344 c 1.44274,0.0455 2.89328,0.25151 4.35351,0.61914 1.98129,0.47036 3.96181,1.27617 5.93946,2.41797 2.45502,1.41741 3.9693,2.84656 4.54296,4.28711 0.57388,1.40106 0.4456,2.79391 -0.38281,4.17773 1.09369,0.15603 2.5464,0.39998 4.35742,0.73242 1.81123,0.29294 3.75974,0.66481 5.84375,1.11524 2.08423,0.41094 4.18484,0.87125 6.30274,1.38086 2.1522,0.48981 4.13342,0.99937 5.94336,1.52929 l -4.63281,2.67383 c -1.40036,-0.37268 -3.03897,-0.76447 -4.91797,-1.17578 -1.8447,-0.43111 -3.70673,-0.83327 -5.58594,-1.20508 -1.91331,-0.3915 -3.75823,-0.74193 -5.53516,-1.05468 -1.81101,-0.33243 -3.36732,-0.59784 -4.66601,-0.79297 -0.48078,0.35634 -0.99571,0.71387 -1.54492,1.07031 -0.54922,0.35644 -1.11592,0.7023 -1.69922,1.03906 l -1.28516,0.74219 13.80859,7.97461 -4.52929,2.61328 -34.93164,-20.16797 c 1.82216,-1.72135 3.84787,-3.22603 6.07812,-4.51367 1.78421,-1.03011 3.60092,-1.84172 5.45117,-2.4375 1.85026,-0.59577 3.73451,-0.93512 5.65039,-1.01758 0.47897,-0.0206 0.95854,-0.0228 1.43946,-0.008 z m -1.11719,3.79297 c -0.28854,-0.0106 -0.57516,-0.008 -0.85742,0.008 -1.12886,0.0218 -2.24142,0.21093 -3.33789,0.56836 -1.06216,0.33764 -2.10738,0.80218 -3.13672,1.39648 -0.8921,0.51505 -1.66383,1.02076 -2.31641,1.51563 l 14.01367,8.0918 1.95508,-1.12891 c 2.3675,-1.36688 3.65859,-2.72318 3.8711,-4.06641 0.17841,-1.36292 -1.04638,-2.80253 -3.67188,-4.31836 -1.32981,-0.76777 -2.60824,-1.30735 -3.83789,-1.62109 -0.92207,-0.26492 -1.81602,-0.41355 -2.68164,-0.44531 z M 292.0918,802.0156 c 3.38078,1.00102 6.77869,2.03159 10.19336,3.0918 3.41488,1.02072 6.93174,2.14156 10.55078,3.35938 3.65334,1.19801 7.45991,2.50329 11.41992,3.91796 3.99432,1.39487 8.24422,2.93679 12.75,4.62696 l -4.63281,2.67578 c -1.80887,-0.7274 -3.61668,-1.43514 -5.42578,-2.12305 -1.77478,-0.70771 -3.56786,-1.40585 -5.37696,-2.09375 l -11.21875,6.47852 c 1.15718,1.06429 2.34843,2.10815 3.57422,3.13281 1.2258,1.02468 2.46863,2.05916 3.72852,3.10352 l -4.47852,2.58593 c -2.96176,-2.58161 -5.65042,-5.0259 -8.0664,-7.33203 -2.416,-2.3061 -4.67779,-4.5043 -6.78711,-6.59375 -2.07502,-2.10929 -4.01418,-4.14002 -5.81641,-6.09179 -1.80203,-1.99127 -3.57087,-3.96217 -5.30469,-5.91407 l 4.89063,-2.82422 z m 2.69531,4.46875 c 1.9723,2.12919 3.9953,4.24816 6.07031,6.35743 2.07502,2.10926 4.25317,4.23833 6.5332,6.38672 l 9.41797,-5.4375 c -3.6868,-1.33619 -7.35642,-2.60278 -11.00976,-3.80079 -3.65335,-1.19802 -7.32384,-2.36716 -11.01172,-3.50586 z m 93.48828,1.33399 80.49414,46.47266 -11.76953,6.79492 -80.49414,-46.47266 11.76953,-6.79492 z m -117.00586,6.21875 c 2.79748,1.33779 5.71425,2.78527 8.75,4.33984 3.07005,1.53481 6.19136,3.13773 9.36328,4.81055 3.17214,1.63334 6.3773,3.32642 9.61719,5.07812 3.2058,1.732 6.39471,3.4537 9.56641,5.16602 l -4.42579,2.55664 c -2.31907,-1.25965 -4.75869,-2.58884 -7.3164,-3.98633 -2.52339,-1.41728 -5.0798,-2.81572 -7.67188,-4.19336 -2.59185,-1.41714 -5.11662,-2.7753 -7.57226,-4.07422 -2.48975,-1.31861 -4.79135,-2.50775 -6.90625,-3.57031 0.54364,0.67045 1.22372,1.51757 2.03906,2.54297 0.81555,0.98592 1.71556,2.06127 2.70117,3.22461 1.01992,1.14353 2.05578,2.33591 3.10938,3.57812 1.0538,1.20271 2.07472,2.3664 3.06054,3.49024 1.02014,1.10403 1.95461,2.11831 2.80469,3.04492 0.8503,0.88712 1.54753,1.60624 2.0918,2.1582 l -3.91211,2.25977 c -3.14125,-1.02121 -6.197,-1.97415 -9.16797,-2.85742 -2.97097,-0.88328 -5.78728,-1.69775 -8.45117,-2.44336 -2.66367,-0.78509 -5.12267,-1.47219 -7.37695,-2.06055 -2.25429,-0.58836 -4.25392,-1.08844 -5.9961,-1.5 1.80631,1.20135 3.83615,2.51191 6.08594,3.92969 2.24999,1.37828 4.55026,2.80637 6.90234,4.2832 2.38639,1.45702 4.79045,2.92367 7.21094,4.40039 2.4207,1.43721 4.73896,2.81568 6.95508,4.13477 l -4.42578,2.55469 c -2.96584,-1.83118 -5.94929,-3.67257 -8.94922,-5.52344 -3.03403,-1.87055 -5.98237,-3.71181 -8.8457,-5.52344 -2.86311,-1.85111 -5.64136,-3.65356 -8.33399,-5.40625 -2.65831,-1.7725 -5.14576,-3.46496 -7.46289,-5.08008 l 4.58008,-2.64453 c 2.08379,0.48994 4.54388,1.09673 7.37891,1.82227 2.8009,0.70586 5.70348,1.47095 8.70898,2.29492 3.03981,0.80416 6.04444,1.62887 9.01562,2.47266 2.97119,0.84378 5.65273,1.63867 8.04297,2.38476 -1.29227,-1.38 -2.68584,-2.91767 -4.18164,-4.61328 -1.49578,-1.6956 -2.9576,-3.41126 -4.38476,-5.14648 -1.42717,-1.73523 -2.76851,-3.4027 -4.02539,-5 -1.25668,-1.6368 -2.30963,-3.05669 -3.15821,-4.25977 l 4.58008,-2.64453 z m 84.93945,21.95312 c 6.6523,-0.0853 13.48302,0.88848 20.49219,2.92188 7.01891,1.93835 14.28376,5.07554 21.79492,9.41211 7.51116,4.33657 12.98321,8.55332 16.41797,12.65039 3.44451,4.00204 5.0931,7.92297 4.94532,11.76367 -0.0606,3.79038 -1.75249,7.4955 -5.07618,11.11328 -3.23649,3.56746 -7.77608,7.03584 -13.61718,10.4082 -5.92828,3.42269 -12.90233,6.64538 -20.92188,9.66602 l -78.05273,-45.06445 c 2.69338,-2.27034 5.41468,-4.42345 8.16601,-6.45899 2.75133,-2.03555 5.5664,-3.8839 8.44336,-5.54492 5.92828,-3.42269 11.98114,-6.0689 18.16016,-7.9375 6.26619,-1.91892 12.68292,-2.8947 19.24804,-2.92969 z m -4.07226,8.73829 c -3.40422,0.0542 -6.78484,0.54695 -10.14063,1.47851 -4.3872,1.19174 -8.84746,3.09554 -13.38086,5.71289 -1.22052,0.70468 -2.40182,1.43226 -3.54492,2.18164 -1.1431,0.74938 -2.29052,1.54621 -3.44336,2.39063 l 62.72071,36.21289 c 1.46257,-0.66559 2.84265,-1.32831 4.14062,-1.98828 1.29796,-0.65997 2.51509,-1.31832 3.64844,-1.97266 4.62057,-2.66768 7.96318,-5.26783 10.02734,-7.80078 2.06417,-2.53295 2.85948,-5.09334 2.38672,-7.68164 -0.46301,-2.68333 -2.22925,-5.46336 -5.29687,-8.3418 -3.06761,-2.87843 -7.5049,-5.99464 -13.3125,-9.34766 -5.73017,-3.30831 -11.08863,-5.84806 -16.07422,-7.61914 -4.98558,-1.7711 -9.75785,-2.81515 -14.31836,-3.13281 -1.14013,-0.0794 -2.27737,-0.10985 -3.41211,-0.0918 z"
       id="path6701"
       inkscape:connector-curvature="0" />
  </g>
</svg>
