<?xml version="1.0" encoding="UTF-8" standalone="no"?>
<!-- Created with Inkscape (http://www.inkscape.org/) -->

<svg
   xmlns:dc="http://purl.org/dc/elements/1.1/"
   xmlns:cc="http://creativecommons.org/ns#"
   xmlns:rdf="http://www.w3.org/1999/02/22-rdf-syntax-ns#"
   xmlns:svg="http://www.w3.org/2000/svg"
   xmlns="http://www.w3.org/2000/svg"
   xmlns:sodipodi="http://sodipodi.sourceforge.net/DTD/sodipodi-0.dtd"
   xmlns:inkscape="http://www.inkscape.org/namespaces/inkscape"
   width="210mm"
   height="297mm"
   viewBox="0 0 210 297"
   version="1.1"
   id="svg9220"
   inkscape:version="0.92+devel (unknown)"
   sodipodi:docname="colors.svg">
  <defs
     id="defs9214" />
  <sodipodi:namedview
     id="base"
     pagecolor="#ffffff"
     bordercolor="#666666"
     borderopacity="1.0"
     inkscape:pageopacity="0.0"
     inkscape:pageshadow="2"
     inkscape:zoom="0.49497475"
     inkscape:cx="229.41365"
     inkscape:cy="765.21721"
     inkscape:document-units="mm"
     inkscape:current-layer="layer1"
     inkscape:document-rotation="0"
     showgrid="false"
     inkscape:window-width="1366"
     inkscape:window-height="721"
     inkscape:window-x="0"
     inkscape:window-y="0"
     inkscape:window-maximized="1" />
  <metadata
     id="metadata9217">
    <rdf:RDF>
      <cc:Work
         rdf:about="">
        <dc:format>image/svg+xml</dc:format>
        <dc:type
           rdf:resource="http://purl.org/dc/dcmitype/StillImage" />
        <dc:title></dc:title>
      </cc:Work>
    </rdf:RDF>
  </metadata>
  <g
     inkscape:label="Layer 1"
     inkscape:groupmode="layer"
     id="layer1">
    <path
       style="display:inline;fill:#3343a3;fill-opacity:1;fill-rule:evenodd;stroke:none;stroke-width:1.0735029px;stroke-linecap:butt;stroke-linejoin:miter;stroke-opacity:1"
       d="m 153.44917,78.10841 -16.47159,9.51056 16.47159,9.50848 16.46941,-9.50848 z m -0.002,1.065089 c 2.10024,0 3.79708,1.670526 3.79708,3.732102 0,1.058729 -0.44805,2.012475 -1.16785,2.692174 l -0.002,0.002 -0.002,0.002 c -1.12645,1.146711 -1.87775,1.651325 -2.58733,1.641665 -0.70958,-0.008 -1.49416,-0.543275 -2.66907,-1.650065 -0.71798,-0.679519 -1.16365,-1.630805 -1.16365,-2.687954 0,-2.061616 1.69466,-3.732102 3.79498,-3.732102 z m -3.34633,6.891829 c 0.1854,0.414911 0.40127,0.804082 0.67096,1.132211 1.98293,2.680113 3.30469,2.733374 5.34862,0.008 0.27063,-0.328649 0.48904,-0.72018 0.67514,-1.136431 0.34325,0.0244 0.68694,0.0406 1.02947,0.0734 0.26615,0.0244 0.44629,0.125803 0.59756,0.287248 0.1514,0.161404 0.2686,0.39113 0.36273,0.660458 l 1.28523,3.6839 c 0.17641,0.633318 0.1286,1.168592 -0.1026,1.637505 -0.23167,0.468933 -0.65636,0.878524 -1.26428,1.224454 a 0.20130194,0.20130194 0 0 0 -0.002,0.002 c -1.65068,0.973466 -3.52955,1.280975 -5.248,1.285275 a 0.20130194,0.20130194 0 0 0 -0.0202,0 0.20130194,0.20130194 0 0 0 -0.002,0 0.20130194,0.20130194 0 0 0 -0.016,0 c -1.71853,-0.004 -3.59948,-0.312009 -5.25012,-1.285275 a 0.20130194,0.20130194 0 0 0 -0.002,-0.002 c -0.60792,-0.34609 -1.03337,-0.755561 -1.26432,-1.224454 -0.23085,-0.468873 -0.27711,-1.004107 -0.1006,-1.637505 l 1.28529,-3.6839 c 0.0942,-0.269408 0.21179,-0.499214 0.36273,-0.660458 0.15101,-0.161005 0.32945,-0.261687 0.59544,-0.287248 0.35219,-0.0324 0.70574,-0.0504 1.05881,-0.0754 z m 3.26875,8.858502 h 0.0544 a 0.20130194,0.20130194 0 0 0 -0.0922,0.0366 l 0.0366,-0.0366 z m 0.082,0 h 0.0482 l 0.0422,0.0422 a 0.20130194,0.20130194 0 0 0 -0.09,-0.0422 z"
       id="path4852"
       inkscape:connector-curvature="0" />
    <path
       style="display:inline;fill:#63337f;fill-opacity:1;fill-rule:evenodd;stroke:none;stroke-width:0.53673679px;stroke-linecap:butt;stroke-linejoin:miter;stroke-opacity:1"
       d="m 46.391075,44.827941 -16.470257,9.50911 16.470257,9.50912 16.470256,-9.50912 z"
       id="path4828"
       inkscape:connector-curvature="0"
       sodipodi:nodetypes="ccccc" />
    <path
       style="display:inline;fill:#be2931;fill-opacity:1;fill-rule:evenodd;stroke:none;stroke-width:0.53673679px;stroke-linecap:butt;stroke-linejoin:miter;stroke-opacity:1"
       d="m 79.331628,82.864401 -16.470276,9.50912 16.470276,9.509119 16.470257,-9.509119 z"
       id="path4831"
       inkscape:connector-curvature="0"
       sodipodi:nodetypes="ccccc" />
    <path
       style="display:inline;fill:#d8953a;fill-opacity:1;fill-rule:evenodd;stroke:none;stroke-width:0.53673679px;stroke-linecap:butt;stroke-linejoin:miter;stroke-opacity:1"
       d="m 29.920798,54.337051 -16.470277,9.50912 16.470277,9.50912 16.470277,-9.50912 z"
       id="path4834"
       inkscape:connector-curvature="0"
       sodipodi:nodetypes="ccccc" />
    <path
       style="display:inline;fill:#d4c62e;fill-opacity:1;fill-rule:evenodd;stroke:none;stroke-width:0.53673679px;stroke-linecap:butt;stroke-linejoin:miter;stroke-opacity:1"
       d="m 62.861352,73.355291 -16.470277,9.50911 16.470277,9.50912 16.470276,-9.50912 z"
       id="path4836"
       inkscape:connector-curvature="0"
       sodipodi:nodetypes="ccccc" />
    <path
       style="display:inline;fill:#50ab5d;fill-opacity:1;fill-rule:evenodd;stroke:none;stroke-width:0.53673679px;stroke-linecap:butt;stroke-linejoin:miter;stroke-opacity:1"
       d="m 46.391075,63.846171 -16.470277,9.50912 16.470277,9.50911 16.470277,-9.50911 z"
       id="path4838"
       inkscape:connector-curvature="0"
       sodipodi:nodetypes="ccccc" />
    <path
       style="display:inline;fill:#32a0b8;fill-opacity:1;fill-rule:evenodd;stroke:none;stroke-width:0.53673679px;stroke-linecap:butt;stroke-linejoin:miter;stroke-opacity:1"
       d="m 79.331628,63.846171 -16.470276,9.50912 16.470276,9.50911 16.470257,-9.50911 z"
       id="path4848"
       inkscape:connector-curvature="0"
       sodipodi:nodetypes="ccccc" />
    <path
       style="display:inline;fill:#3343a3;fill-opacity:1;fill-rule:evenodd;stroke:none;stroke-width:0.53673679px;stroke-linecap:butt;stroke-linejoin:miter;stroke-opacity:1"
       d="m 62.861352,54.337051 -16.470257,9.50912 16.470257,9.50912 16.470256,-9.50912 z"
       id="path4850"
       inkscape:connector-curvature="0"
       sodipodi:nodetypes="ccccc" />
    <path
       sodipodi:nodetypes="ccccc"
       inkscape:connector-curvature="0"
       id="path5130"
       d="m 71.0965,30.564261 -16.470236,9.50912 16.470236,9.50911 16.470257,-9.50911 z"
       style="display:inline;fill:#cdb7d9;fill-opacity:1;fill-rule:evenodd;stroke:none;stroke-width:0.53673679px;stroke-linecap:butt;stroke-linejoin:miter;stroke-opacity:1" />
    <path
       sodipodi:nodetypes="ccccc"
       inkscape:connector-curvature="0"
       id="path5132"
       d="m 136.97759,49.582491 -16.47028,9.50912 16.47028,9.50912 16.47025,-9.50912 z"
       style="display:inline;fill:#d9b7b9;fill-opacity:1;fill-rule:evenodd;stroke:none;stroke-width:0.53673679px;stroke-linecap:butt;stroke-linejoin:miter;stroke-opacity:1" />
    <path
       sodipodi:nodetypes="ccccc"
       inkscape:connector-curvature="0"
       id="path5134"
       d="m 87.566757,21.055141 -16.470277,9.50912 16.470277,9.50912 16.470273,-9.50912 z"
       style="display:inline;fill:#d9cbb7;fill-opacity:1;fill-rule:evenodd;stroke:none;stroke-width:0.53673679px;stroke-linecap:butt;stroke-linejoin:miter;stroke-opacity:1" />
    <path
       sodipodi:nodetypes="ccccc"
       inkscape:connector-curvature="0"
       id="path5136"
       d="m 120.50731,40.073381 -16.47028,9.50911 16.47028,9.50912 16.47028,-9.50912 z"
       style="display:inline;fill:#ede8be;fill-opacity:1;fill-rule:evenodd;stroke:none;stroke-width:0.53673679px;stroke-linecap:butt;stroke-linejoin:miter;stroke-opacity:1" />
    <path
       sodipodi:nodetypes="ccccc"
       inkscape:connector-curvature="0"
       id="path5138"
       d="m 104.03703,30.564261 -16.470273,9.50912 16.470273,9.50911 16.47028,-9.50911 z"
       style="display:inline;fill:#b7d9bc;fill-opacity:1;fill-rule:evenodd;stroke:none;stroke-width:0.53673679px;stroke-linecap:butt;stroke-linejoin:miter;stroke-opacity:1" />
    <path
       sodipodi:nodetypes="ccccc"
       inkscape:connector-curvature="0"
       id="path5140"
       d="m 104.03705,49.582491 -16.470273,9.50912 16.470273,9.50912 16.47028,-9.50912 z"
       style="display:inline;fill:#b4d4dc;fill-opacity:1;fill-rule:evenodd;stroke:none;stroke-width:0.53673679px;stroke-linecap:butt;stroke-linejoin:miter;stroke-opacity:1" />
    <path
       sodipodi:nodetypes="ccccc"
       inkscape:connector-curvature="0"
       id="path5142"
       d="m 87.566777,40.073381 -16.470257,9.50911 16.470257,9.50912 16.470253,-9.50912 z"
       style="display:inline;fill:#b5bedb;fill-opacity:1;fill-rule:evenodd;stroke:none;stroke-width:0.53673679px;stroke-linecap:butt;stroke-linejoin:miter;stroke-opacity:1" />
    <path
       style="display:inline;fill:#c8ecf5;fill-opacity:1;fill-rule:evenodd;stroke:none;stroke-width:0.53673679px;stroke-linecap:butt;stroke-linejoin:miter;stroke-opacity:1"
       d="m 136.97756,87.61897 -16.47025,9.50911 16.47025,9.50912 16.47028,-9.50912 z"
       id="path13802"
       inkscape:connector-curvature="0"
       sodipodi:nodetypes="ccccc" />
    <path
       sodipodi:nodetypes="ccccc"
       inkscape:connector-curvature="0"
       id="path10214"
       d="m 136.97758,68.600731 -16.47028,9.50912 16.47028,9.509119 16.47027,-9.509119 z"
       style="display:inline;fill:#c8ecf5;fill-opacity:1;fill-rule:evenodd;stroke:none;stroke-width:0.53673679px;stroke-linecap:butt;stroke-linejoin:miter;stroke-opacity:1" />
  </g>
</svg>
